<?xml version="1.0" encoding="UTF-8"?>
<svg id="Ebene_3" data-name="Ebene 3" xmlns="http://www.w3.org/2000/svg" viewBox="0 0 605.723 340.285">
  <path d="m307.531,204.08V57.232c5.783,0,11.372-.076,16.958.019,7.15.122,14.357-.132,21.432.694,12.527,1.461,21.868,11.269,22.003,23.883.348,32.629.355,65.267-.004,97.895-.144,13.091-10.301,23.494-23.411,24.215-12.104.666-24.273.142-36.978.142Zm13.746-134.793v123.21c5.333,0,10.303.084,15.269-.016,13.064-.264,18.389-5.717,18.405-18.843.027-21.662.008-43.323.003-64.985-.002-7.831.152-15.668-.072-23.493-.268-9.32-6.018-15.518-14.622-15.83-6.144-.222-12.302-.043-18.983-.043Z"/>
  <path d="m362.042,228.201c15.496,0,30.625-.14,45.748.079,5.008.073,8.033,3.178,8.166,8.322.28,10.817.449,21.664-.105,32.459-.144,2.808-2.821,5.733-4.897,8.113-1.576,1.806-4.045,2.832-6.115,4.204.256.455.34.856.556.95,9.969,4.309,12.466,12.227,11.654,22.383-.622,7.779-.029,15.649-.157,23.475-.148,9.036-3.154,12.014-12.068,12.05-14.131.057-28.262.015-42.781.015v-112.05Zm16.832,97.505h20.987c0-8.848.002-17.319,0-25.791-.001-5.45-3.288-10.016-8.576-10.751-4.008-.557-8.156-.111-12.411-.111v36.652Zm.252-83.257v32.556c3.892,0,7.68.877,10.75-.233,3.452-1.248,8.561-3.974,8.919-6.605,1.145-8.42.425-17.094.425-25.718h-20.094Z"/>
  <path d="m403.902,192.115h34.765V57.456h13.163c.091,1.859.24,3.478.239,5.097-.02,42.643-.049,85.286-.093,127.929-.011,10.485-3.296,13.77-13.7,13.777-12.16.008-24.32.073-36.479-.03-7.052-.06-10.851-3.789-10.863-10.844-.071-44.475-.052-88.951-.053-133.426,0-.659.133-1.317.247-2.373h12.774v134.529Z"/>
  <path d="m532.426,101.972h-13.119v-32.319h-31.309c0,9.843-.084,19.766.105,29.684.024,1.262,1.354,2.6,2.288,3.73,12.003,14.505,23.939,29.068,36.134,43.41,4.122,4.848,6.127,10.023,5.961,16.395-.26,9.993.011,19.998-.105,29.996-.09,7.813-3.635,11.326-11.355,11.37-11.832.067-23.665.077-35.497-.013-6-.046-10.429-3.13-10.588-8.408-.389-12.942-.127-25.904-.127-39.188h13.054v35.479h31.285c0-8.118-.412-16.244.124-24.307.472-7.105-1.597-12.534-6.331-17.93-11.423-13.02-22.166-26.634-33.268-39.938-3.345-4.009-5.214-8.406-5.163-13.681.087-8.998-.069-18,.049-26.997.108-8.22,3.803-11.889,12.012-11.954,11.332-.09,22.665-.084,33.997,0,8.088.06,11.731,3.566,11.821,11.513.124,10.957.031,21.916.031,33.16Z"/>
  <path d="m60.14,102.026h-13.141v-32.378H15.361c0,9.718-.101,19.337.111,28.948.031,1.419,1.381,2.943,2.404,4.185,12.289,14.918,24.568,29.845,37.001,44.642,3.621,4.309,5.39,8.982,5.3,14.611-.163,10.163.003,20.332-.066,30.497-.054,8.018-3.678,11.689-11.583,11.73-11.832.06-23.666.079-35.498-.012-6.08-.047-10.023-3.391-10.827-8.94-.214-1.474-.145-2.993-.146-4.492-.01-11.297-.006-22.594-.006-34.221h13.131v35.325h31.668c0-11.067.111-22.018-.126-32.961-.033-1.546-1.603-3.188-2.733-4.563-12.163-14.805-24.325-29.612-36.616-44.311-3.715-4.443-5.521-9.288-5.38-15.103.205-8.495.012-16.998.064-25.497.051-8.293,3.926-12.177,12.299-12.228,11.332-.069,22.666-.085,33.998.01,7.935.066,11.709,3.822,11.766,11.649.08,10.952.02,21.905.02,33.109Z"/>
  <path d="m604.58,263.091h-16.832v-20.602h-20.461c0,6.174-.188,12.129.129,18.057.082,1.527,1.499,3.233,2.729,4.41,9.629,9.211,19.299,18.382,29.098,27.413,3.404,3.137,5.335,6.738,5.341,11.352.011,8.495.206,16.996-.047,25.484-.245,8.223-3.229,10.957-11.455,11.018-10.494.078-20.99.088-31.483-.005-7.56-.068-10.628-2.541-10.984-9.89-.426-8.781-.101-17.598-.101-26.798h16.68v22.196h20.532c0-6.76.156-13.673-.136-20.568-.056-1.322-1.732-2.718-2.899-3.829-9.408-8.96-18.776-17.968-28.368-26.73-4.121-3.764-6.117-8.071-5.993-13.621.157-6.993-.095-13.995.076-20.987.222-9.08,3.128-11.859,12.144-11.899,10.328-.046,20.657-.08,30.984.019,7.666.073,10.667,2.747,10.974,10.419.324,8.102.073,16.228.073,24.563Z"/>
  <path d="m208.199,204.121h-13.237c-1.721-10.557-3.445-21.127-5.269-32.32-8.894,0-17.676-.147-26.439.188-1.08.041-2.704,2.538-2.985,4.094-1.648,9.147-2.972,18.352-4.455,27.858h-12.916c8.693-48.892,17.355-97.607,26.065-146.595h13.337c8.581,48.629,17.196,97.454,25.9,146.776Zm-20.238-44.347c-4.115-25.171-8.187-50.074-12.259-74.977-.245-.019-.491-.037-.736-.056-4.053,24.908-8.106,49.816-12.21,75.033h25.204Z"/>
  <path d="m231.631,340.014h-16.873c-.911-5.6-2.042-11.118-2.625-16.693-.326-3.118-1.306-4.64-4.559-4.174-.652.093-1.331-.014-1.995.016-4.928.223-11.471-1.356-14.334,1.194-2.914,2.596-2.201,9.26-3.087,14.141-.324,1.787-.68,3.569-1.053,5.517h-16.614c7.255-37.466,14.442-74.579,21.661-111.858h17.997c7.122,37.086,14.268,74.293,21.482,111.856Zm-22.809-36.032c-2.574-15.549-5.045-30.481-7.517-45.413-.292.025-.584.051-.876.076-2.458,15.014-4.916,30.029-7.422,45.337h15.815Z"/>
  <path d="m301.864,67.085c-10.982,13.232-21.269,25.625-31.831,38.35,8.645,13.748,17.276,27.474,26.39,41.969-1.424-.386-2.194-.353-2.509-.716-10.898-12.547-21.738-25.145-32.627-37.7-2.496-2.877-2.326-5.146.357-8.068,5.025-5.474,9.566-11.393,15.281-18.302-9.068,2.277-16.658,4.031-24.148,6.142-2.769.78-4.265.152-5.707-2.229-4.03-6.656-8.259-13.192-13.408-19.57-.39,5.193-.781,10.387-1.222,16.258-5.524-4.63-10.578-8.65-15.395-12.935C177.308,34.931,129.338,19.002,77.905,11.329c-11.525-1.719-23.11-3.189-34.718-4.165-11.603-.976-23.271-1.191-34.904-1.939C47.325-3.251,86.013-1.349,124.194,10.454c38.266,11.829,71.153,32.6,99.635,62.293.869-12.299,1.657-23.446,2.521-35.662,1.394,1.781,2.235,2.686,2.885,3.712,7.126,11.253,14.384,22.429,21.228,33.852,2.082,3.474,4.016,4.302,7.909,3.232,12.988-3.57,26.087-6.741,39.148-10.044,1.046-.265,2.132-.375,4.344-.753Z"/>
  <path d="m133.571,57.53v11.642h-22.274v134.702h-13.407V69.545h-22.556v-12.014h58.237Z"/>
  <path d="m570.163,69.219h-22.67v-11.711h58.23v11.564h-22.221v134.871h-13.339V69.219Z"/>
  <path d="m16.716,325.09h27.094v14.765H0v-111.539h16.716v96.775Z"/>
  <path d="m284.649,204.072h-12.133c-4.794-37.937-18.53-72.451-40.853-103.6,16.605,15.749,35.425,29.348,41.82,53.484,4.349,16.415,9.315,32.597,11.166,50.116Z"/>
</svg>